<?xml version="1.0" standalone="no"?>
<!DOCTYPE svg PUBLIC "-//W3C//DTD SVG 20010904//EN"
 "http://www.w3.org/TR/2001/REC-SVG-20010904/DTD/svg10.dtd">
<svg version="1.0" xmlns="http://www.w3.org/2000/svg"
 width="416.000000pt" height="269.000000pt" viewBox="0 0 416.000000 269.000000"
 preserveAspectRatio="xMidYMid meet">

<g transform="translate(0.000000,269.000000) scale(0.100000,-0.100000)"
fill="#c9a84c" stroke="none">
<path d="M1956 2413 l-119 -228 103 -200 c56 -110 112 -215 123 -233 l19 -33
17 28 c39 63 221 423 221 435 0 23 -222 450 -237 455 -5 2 -62 -99 -127 -224z
m227 -63 l86 -165 -88 -170 c-49 -93 -93 -171 -97 -172 -5 -2 -49 75 -98 170
l-90 173 83 159 c91 175 101 190 111 178 4 -4 46 -82 93 -173z"/>
<path d="M2025 2394 c-32 -60 -66 -124 -77 -143 -10 -18 -17 -36 -14 -39 3 -2
38 10 78 27 l73 32 69 -31 c37 -17 70 -29 73 -27 4 5 -43 102 -110 226 l-35
63 -57 -108z"/>
<path d="M1993 2214 c-40 -18 -73 -36 -73 -39 0 -3 13 -29 29 -58 16 -28 50
-92 76 -142 26 -49 50 -93 54 -98 7 -7 161 280 161 300 0 10 -147 74 -165 72
-5 0 -43 -16 -82 -35z"/>
<path d="M1948 1788 c-258 -461 -422 -707 -553 -826 -31 -29 -68 -55 -81 -58
-13 -3 -24 -10 -24 -15 0 -5 66 -148 147 -319 l147 -310 240 2 241 3 2 697 3
697 -41 78 c-22 43 -44 82 -49 86 -4 5 -19 -11 -32 -35z"/>
<path d="M2143 1751 l-43 -78 0 -707 0 -706 240 0 240 0 46 98 c146 305 254
535 252 536 -2 1 -25 12 -52 26 -109 54 -318 346 -552 767 -43 79 -81 143 -84
143 -3 0 -24 -35 -47 -79z"/>
<path d="M3960 1508 c0 -142 2 -258 5 -258 3 0 21 31 40 70 34 67 35 73 35
185 0 108 -2 119 -30 173 -16 31 -34 64 -39 72 -8 10 -11 -63 -11 -242z"/>
<path d="M158 1683 c-37 -70 -38 -76 -38 -178 0 -102 1 -108 38 -178 l37 -72
3 122 c1 67 1 179 0 250 l-3 128 -37 -72z"/>
<path d="M62 1585 c-18 -36 -32 -73 -32 -83 1 -9 16 -46 35 -82 l34 -65 1 148
c0 81 -1 147 -3 147 -1 0 -17 -29 -35 -65z"/>
<path d="M4060 1500 c0 -77 2 -140 5 -140 3 0 21 32 41 72 l36 72 -33 68 c-18
37 -36 68 -41 68 -4 0 -8 -63 -8 -140z"/>
<path d="M903 1505 c-15 -11 -26 -38 -38 -92 -84 -376 -113 -472 -159 -518
l-25 -25 111 -182 c61 -101 145 -239 186 -308 41 -69 80 -129 87 -135 15 -12
475 4 475 17 0 4 -59 128 -131 276 -174 355 -247 518 -335 752 -87 228 -110
258 -171 215z"/>
<path d="M3189 1507 c-23 -17 -36 -46 -79 -166 -88 -247 -153 -393 -354 -801
-74 -151 -132 -278 -128 -282 4 -4 112 -8 241 -10 l234 -3 79 130 c44 72 129
212 190 312 l111 182 -31 35 c-16 19 -39 63 -51 98 -20 62 -78 297 -101 412
-18 86 -66 127 -111 93z"/>
<path d="M3910 1385 c-8 -9 -8 -15 -2 -15 12 0 26 19 19 26 -2 2 -10 -2 -17
-11z"/>
<path d="M240 1380 c0 -5 5 -10 11 -10 5 0 7 5 4 10 -3 6 -8 10 -11 10 -2 0
-4 -4 -4 -10z"/>
<path d="M247 1333 c-4 -3 -7 -36 -7 -73 0 -59 11 -96 86 -306 47 -131 103
-288 125 -349 126 -353 156 -430 170 -428 8 1 48 8 89 16 41 9 127 20 190 27
63 6 116 13 118 15 5 4 -4 19 -221 375 -82 135 -182 295 -222 355 -39 61 -102
156 -138 211 -36 56 -82 115 -102 133 -33 29 -73 40 -88 24z"/>
<path d="M3820 1300 c-23 -23 -57 -66 -77 -98 -20 -31 -89 -138 -153 -237 -64
-99 -151 -236 -192 -305 -42 -69 -117 -192 -167 -274 -50 -82 -90 -150 -89
-151 2 -2 71 -10 155 -19 83 -10 175 -24 204 -31 29 -8 54 -13 54 -12 6 8 43
108 71 187 18 52 51 145 73 205 226 625 231 639 231 695 0 92 -43 107 -110 40z"/>
<path d="M3470 931 c0 -12 28 -22 35 -12 3 5 -2 12 -11 15 -21 8 -24 8 -24 -3z"/>
<path d="M665 920 c4 -6 11 -8 16 -5 14 9 11 15 -7 15 -8 0 -12 -5 -9 -10z"/>
<path d="M1560 219 c-422 -12 -797 -42 -895 -70 l-40 -12 45 -14 c54 -16 245
-38 465 -54 244 -17 1367 -23 1667 -10 392 18 590 36 692 62 48 13 38 23 -39
37 -305 55 -1153 83 -1895 61z"/>
</g>
</svg>
